<svg width="56" height="56" viewBox="0 0 56 56" fill="none" xmlns="http://www.w3.org/2000/svg">
<g clip-path="url(#clip0_87_653)">
<path d="M36.2573 13.6802V0L-6.48499e-05 0V13.6802L36.2573 13.6802Z" fill="#0E1111"/>
<path d="M49.1516 13.6802C52.9293 13.6802 55.9917 10.6178 55.9917 6.8401C55.9917 3.06242 52.9293 0 49.1516 0C45.3739 0 42.3115 3.06242 42.3115 6.8401C42.3115 10.6178 45.3739 13.6802 49.1516 13.6802Z" fill="#0E1111"/>
<path d="M18.1287 55.9915C28.1409 55.9915 36.2574 47.875 36.2574 37.8628C36.2574 27.8506 28.1409 19.7341 18.1287 19.7341C8.11648 19.7341 0 27.8506 0 37.8628C0 47.875 8.11648 55.9915 18.1287 55.9915Z" fill="#0E1111"/>
<path d="M55.9917 19.7343H42.3115V55.9916H55.9917V19.7343Z" fill="#0E1111"/>
</g>
<defs>
<clipPath id="clip0_87_653">
<rect width="56" height="56" fill="white"/>
</clipPath>
</defs>
</svg>
