<svg width="101" height="48" viewBox="0 0 101 48" fill="none" xmlns="http://www.w3.org/2000/svg">
<g clip-path="url(#clip0_253_6)">
<path d="M27.1931 13.2601V3L1.14441e-05 3V13.2601L27.1931 13.2601Z" fill="#0E1111"/>
<path d="M36.8638 13.2601C39.6971 13.2601 41.9939 10.9633 41.9939 8.13007C41.9939 5.29681 39.6971 3 36.8638 3C34.0305 3 31.7337 5.29681 31.7337 8.13007C31.7337 10.9633 34.0305 13.2601 36.8638 13.2601Z" fill="#0E1111"/>
<path d="M13.5965 44.9936C21.1056 44.9936 27.193 38.9062 27.193 31.3971C27.193 23.888 21.1056 17.8006 13.5965 17.8006C6.08736 17.8006 0 23.888 0 31.3971C0 38.9062 6.08736 44.9936 13.5965 44.9936Z" fill="#0E1111"/>
<path d="M41.9937 17.8007H31.7336V44.9937H41.9937V17.8007Z" fill="#0E1111"/>
</g>
<path d="M65.4418 9.04972C65.3045 8.61884 65.1198 8.23295 64.8878 7.89205C64.6605 7.5464 64.3883 7.25284 64.071 7.01136C63.7538 6.76515 63.3916 6.57812 62.9844 6.45028C62.5819 6.32244 62.1392 6.25852 61.6562 6.25852C60.8371 6.25852 60.0985 6.46922 59.4403 6.89062C58.7822 7.31203 58.2614 7.92992 57.8778 8.74432C57.4991 9.55398 57.3097 10.5459 57.3097 11.7202C57.3097 12.8991 57.5014 13.8958 57.8849 14.7102C58.2685 15.5246 58.794 16.1425 59.4616 16.5639C60.1293 16.9853 60.8892 17.196 61.7415 17.196C62.5322 17.196 63.2211 17.035 63.8082 16.7131C64.4001 16.3911 64.857 15.9366 65.179 15.3494C65.5057 14.7576 65.669 14.0616 65.669 13.2614L66.2372 13.3679H62.0753V11.5568H67.7926V13.2116C67.7926 14.4332 67.5322 15.4938 67.0114 16.3935C66.4953 17.2884 65.7803 17.9796 64.8665 18.4673C63.9574 18.955 62.9157 19.1989 61.7415 19.1989C60.4252 19.1989 59.2699 18.8958 58.2756 18.2898C57.286 17.6837 56.5142 16.8243 55.9602 15.7116C55.4063 14.5942 55.1293 13.2685 55.1293 11.7344C55.1293 10.5743 55.2902 9.53267 55.6122 8.60938C55.9342 7.68608 56.3864 6.90246 56.9688 6.25852C57.5559 5.60985 58.2448 5.11506 59.0355 4.77415C59.831 4.4285 60.6998 4.25568 61.642 4.25568C62.428 4.25568 63.1596 4.37169 63.8366 4.60369C64.5185 4.8357 65.1245 5.16477 65.6548 5.59091C66.1899 6.01705 66.6326 6.52367 66.983 7.1108C67.3333 7.69318 67.5701 8.33949 67.6932 9.04972H65.4418ZM75.1097 19.2202C74.0349 19.2202 73.1093 18.9905 72.3327 18.5312C71.561 18.0672 70.9644 17.4162 70.543 16.5781C70.1263 15.7353 69.918 14.7481 69.918 13.6165C69.918 12.4991 70.1263 11.5142 70.543 10.6619C70.9644 9.80966 71.5515 9.14441 72.3043 8.66619C73.0619 8.18797 73.9473 7.94886 74.9606 7.94886C75.5761 7.94886 76.1727 8.05066 76.7504 8.25426C77.328 8.45786 77.8465 8.77746 78.3058 9.21307C78.765 9.64867 79.1272 10.2145 79.3924 10.9105C79.6576 11.6018 79.7901 12.4422 79.7901 13.4318V14.1847H71.1183V12.5938H77.7092C77.7092 12.035 77.5955 11.5402 77.3683 11.1094C77.141 10.6738 76.8214 10.3305 76.4094 10.0795C76.0022 9.8286 75.524 9.70312 74.9748 9.70312C74.3782 9.70312 73.8574 9.84991 73.4123 10.1435C72.9719 10.4323 72.631 10.8111 72.3896 11.2798C72.1528 11.7438 72.0344 12.2481 72.0344 12.7926V14.0355C72.0344 14.7647 72.1623 15.3849 72.418 15.8963C72.6784 16.4077 73.0406 16.7983 73.5046 17.0682C73.9686 17.3333 74.5108 17.4659 75.131 17.4659C75.5335 17.4659 75.9005 17.4091 76.2319 17.2955C76.5633 17.1771 76.8498 17.0019 77.0913 16.7699C77.3327 16.5379 77.5174 16.2514 77.6452 15.9105L79.6552 16.2727C79.4942 16.8646 79.2054 17.383 78.7887 17.8281C78.3768 18.2685 77.8583 18.6117 77.2333 18.858C76.613 19.0994 75.9052 19.2202 75.1097 19.2202ZM87.2386 8.09091V9.79545H81.2798V8.09091H87.2386ZM82.8778 5.47727H85.0014V15.7969C85.0014 16.2088 85.063 16.5189 85.1861 16.7273C85.3092 16.9309 85.4678 17.0705 85.6619 17.1463C85.8608 17.2173 86.0762 17.2528 86.3082 17.2528C86.4787 17.2528 86.6278 17.241 86.7557 17.2173C86.8835 17.1937 86.983 17.1747 87.054 17.1605L87.4375 18.9148C87.3144 18.9621 87.1392 19.0095 86.9119 19.0568C86.6847 19.1089 86.4006 19.1373 86.0597 19.142C85.5009 19.1515 84.9801 19.0521 84.4972 18.8438C84.0142 18.6354 83.6236 18.3134 83.3253 17.8778C83.027 17.4422 82.8778 16.8954 82.8778 16.2372V5.47727Z" fill="black"/>
<path d="M61.2514 28.4545H63.4389V38.767C63.4389 39.6998 63.2543 40.4976 62.8849 41.1605C62.5204 41.8234 62.0066 42.33 61.3438 42.6804C60.6809 43.026 59.9044 43.1989 59.0142 43.1989C58.1951 43.1989 57.4588 43.0497 56.8054 42.7514C56.1567 42.4531 55.643 42.0199 55.2642 41.4517C54.8902 40.8788 54.7031 40.1828 54.7031 39.3636H56.8835C56.8835 39.7661 56.9759 40.1141 57.1605 40.4077C57.3499 40.7012 57.608 40.9309 57.9347 41.0966C58.2661 41.2576 58.6449 41.3381 59.071 41.3381C59.535 41.3381 59.928 41.241 60.25 41.0469C60.5767 40.848 60.8253 40.5568 60.9957 40.1733C61.1662 39.7898 61.2514 39.321 61.2514 38.767V28.4545ZM71.0579 43.2202C70.0352 43.2202 69.1426 42.9858 68.3803 42.517C67.618 42.0483 67.0262 41.3925 66.6048 40.5497C66.1834 39.7069 65.9727 38.7221 65.9727 37.5952C65.9727 36.4635 66.1834 35.474 66.6048 34.6264C67.0262 33.7789 67.618 33.1207 68.3803 32.652C69.1426 32.1832 70.0352 31.9489 71.0579 31.9489C72.0806 31.9489 72.9731 32.1832 73.7354 32.652C74.4978 33.1207 75.0896 33.7789 75.511 34.6264C75.9324 35.474 76.1431 36.4635 76.1431 37.5952C76.1431 38.7221 75.9324 39.7069 75.511 40.5497C75.0896 41.3925 74.4978 42.0483 73.7354 42.517C72.9731 42.9858 72.0806 43.2202 71.0579 43.2202ZM71.065 41.4375C71.7279 41.4375 72.2771 41.2623 72.7127 40.9119C73.1483 40.5616 73.4703 40.0952 73.6786 39.5128C73.8917 38.9304 73.9982 38.2888 73.9982 37.5881C73.9982 36.892 73.8917 36.2528 73.6786 35.6705C73.4703 35.0833 73.1483 34.6122 72.7127 34.2571C72.2771 33.902 71.7279 33.7244 71.065 33.7244C70.3974 33.7244 69.8434 33.902 69.4031 34.2571C68.9674 34.6122 68.6431 35.0833 68.43 35.6705C68.2217 36.2528 68.1175 36.892 68.1175 37.5881C68.1175 38.2888 68.2217 38.9304 68.43 39.5128C68.6431 40.0952 68.9674 40.5616 69.4031 40.9119C69.8434 41.2623 70.3974 41.4375 71.065 41.4375ZM78.6839 43V28.4545H80.8075V33.8594H80.9354C81.0585 33.6321 81.236 33.3693 81.468 33.071C81.7 32.7727 82.022 32.5123 82.4339 32.2898C82.8459 32.0625 83.3904 31.9489 84.0675 31.9489C84.9482 31.9489 85.7341 32.1714 86.4254 32.6165C87.1167 33.0616 87.6589 33.7031 88.0518 34.5412C88.4496 35.3793 88.6484 36.3878 88.6484 37.5668C88.6484 38.7457 88.4519 39.7566 88.0589 40.5994C87.666 41.4375 87.1262 42.0838 86.4396 42.5384C85.7531 42.9882 84.9695 43.2131 84.0888 43.2131C83.4259 43.2131 82.8838 43.1018 82.4624 42.8793C82.0457 42.6567 81.719 42.3963 81.4822 42.098C81.2455 41.7997 81.0632 41.5346 80.9354 41.3026H80.7578V43H78.6839ZM80.7649 37.5455C80.7649 38.3125 80.8762 38.9848 81.0987 39.5625C81.3213 40.1402 81.6432 40.5923 82.0646 40.919C82.486 41.241 83.0021 41.402 83.6129 41.402C84.2474 41.402 84.7777 41.2339 85.2038 40.8977C85.63 40.5568 85.9519 40.0952 86.1697 39.5128C86.3923 38.9304 86.5036 38.2746 86.5036 37.5455C86.5036 36.8258 86.3946 36.1795 86.1768 35.6065C85.9638 35.0336 85.6418 34.5814 85.2109 34.25C84.7848 33.9186 84.2521 33.7528 83.6129 33.7528C82.9974 33.7528 82.4766 33.9115 82.0504 34.2287C81.629 34.5459 81.3094 34.9886 81.0916 35.5568C80.8738 36.125 80.7649 36.7879 80.7649 37.5455ZM99.2077 34.7543L97.283 35.0952C97.2025 34.849 97.0747 34.6146 96.8995 34.392C96.729 34.1695 96.497 33.9872 96.2035 33.8452C95.9099 33.7031 95.543 33.6321 95.1026 33.6321C94.5013 33.6321 93.9994 33.767 93.5969 34.0369C93.1945 34.3021 92.9933 34.6454 92.9933 35.0668C92.9933 35.4313 93.1282 35.7249 93.3981 35.9474C93.668 36.17 94.1036 36.3523 94.7049 36.4943L96.4379 36.892C97.4416 37.1241 98.1897 37.4815 98.6822 37.9645C99.1746 38.4474 99.4208 39.0748 99.4208 39.8466C99.4208 40.5 99.2314 41.0824 98.8526 41.5938C98.4786 42.1004 97.9554 42.4981 97.283 42.7869C96.6154 43.0758 95.8413 43.2202 94.9606 43.2202C93.739 43.2202 92.7423 42.9598 91.9705 42.4389C91.1987 41.9134 90.7253 41.1676 90.5501 40.2017L92.6026 39.8892C92.7305 40.4242 92.9933 40.8291 93.391 41.1037C93.7887 41.3736 94.3072 41.5085 94.9464 41.5085C95.6424 41.5085 96.1987 41.3641 96.6154 41.0753C97.0321 40.7817 97.2404 40.4242 97.2404 40.0028C97.2404 39.6619 97.1126 39.3755 96.8569 39.1435C96.6059 38.9115 96.2201 38.7363 95.6992 38.6179L93.8526 38.2131C92.8346 37.9811 92.0818 37.6117 91.5941 37.1051C91.1112 36.5985 90.8697 35.9569 90.8697 35.1804C90.8697 34.5365 91.0496 33.973 91.4094 33.4901C91.7693 33.0071 92.2665 32.6307 92.9009 32.3608C93.5354 32.0862 94.2622 31.9489 95.0813 31.9489C96.2603 31.9489 97.1883 32.2045 97.8654 32.7159C98.5425 33.2225 98.9899 33.902 99.2077 34.7543Z" fill="black"/>
<defs>
<clipPath id="clip0_253_6">
<rect width="42" height="42" fill="white" transform="translate(0 3)"/>
</clipPath>
</defs>
</svg>
