<svg width="299" height="167" viewBox="0 0 299 167" fill="none" xmlns="http://www.w3.org/2000/svg">
<path d="M40.552 59.0747H0L0 166.552H40.552V59.0747Z" fill="#ECECEC"/>
<g clip-path="url(#clip0_152_56)">
<path d="M112.291 166.423C141.97 166.423 166.029 142.363 166.029 112.684C166.029 83.0052 141.97 58.9456 112.291 58.9456C82.6118 58.9456 58.5522 83.0052 58.5522 112.684C58.5522 142.363 82.6118 166.423 112.291 166.423Z" fill="#ECECEC"/>
</g>
<path d="M210.828 108C222.026 108 231.104 98.9221 231.104 87.724C231.104 76.5259 222.026 67.448 210.828 67.448C199.63 67.448 190.552 76.5259 190.552 87.724C190.552 98.9221 199.63 108 210.828 108Z" fill="#ECECEC"/>
<path d="M298.029 166.552L298.029 126L190.552 126L190.552 166.552L298.029 166.552Z" fill="#ECECEC"/>
<defs>
<clipPath id="clip0_152_56">
<rect width="166" height="166" fill="white" transform="translate(58.5522 0.447998)"/>
</clipPath>
</defs>
</svg>
